<svg viewBox="0 0 186 49" fill="none" xmlns="http://www.w3.org/2000/svg"><path d="M26.847 14.938c0 3.722-2.148 6.464-6.443 8.226-3.134 1.29-6.882 1.933-11.244 1.933-5.834 0-8.752-1.175-8.752-3.525a7.68 7.68 0 0 1 .782-3.525c.646-1.264 1.578-1.896 2.794-1.898 1.567 0 2.609.148 3.126.446.223.124.417.464.587 1.026a2.033 2.033 0 0 0 .95 1.245c2.508-.87 3.762-1.937 3.76-3.202-2.88-.347-5.262-.942-7.148-1.786C2.403 12.612.975 10.91.975 8.774c.375-2.232 2.708-4.206 7.001-5.92 3.626-1.439 6.84-2.159 9.646-2.159h3.349c2.632 0 3.924.919 3.875 2.756l-.038 1.116c-.25.224-1.513.632-3.799 1.228-1.886.5-2.791 1.143-2.718 1.94.67.783 1.8 1.44 3.388 1.97 1.937.647 3.129 1.144 3.575 1.49 1.066.796 1.6 2.049 1.601 3.76M52.057 26c0 1.175-.919 2.317-2.756 3.425-1.635.993-3.104 1.49-4.407 1.49a50.333 50.333 0 0 0-3.114-4.246 12.355 12.355 0 0 0-1.528-.223c-1.37 0-2.314.658-2.829 1.974-.797 1.959-1.418 3.175-1.863 3.65-1.29 1.313-3.587 1.97-6.889 1.97-.719 0-1.29-.409-1.713-1.228a4.994 4.994 0 0 1-.484-2.194 89.277 89.277 0 0 1 2.644-11.546c1.567-5.312 3.143-8.713 4.73-10.204.196-.942 1.51-1.785 3.945-2.529 1.986-.588 3.663-.886 5.03-.896 1.535 0 2.304.98 2.306 2.938-.02.786-.081 1.57-.185 2.35s-.166 1.564-.185 2.35c0 1.264.62 2.778 1.863 4.543a422.998 422.998 0 0 1 3.525 4.73c1.267 1.711 1.9 2.928 1.898 3.648m-11.32-5.55a21.567 21.567 0 0 0-.15-1.042c-.495-1.412-1.103-2.12-1.824-2.122l-.15.039c-.22.023-.546.546-.966 1.563-.77 1.836-1.155 2.844-1.155 3.014 0 .226.088.326.259.294a5.985 5.985 0 0 0 3.998-1.748l-.012.003Zm46.299.036c-2.51 1.863-4.397 2.793-5.665 2.79-.67 0-1.518-.57-2.547-1.712-1.028-1.142-1.73-1.713-2.103-1.713a.941.941 0 0 0-.523.15c-.97.646-1.615 1.95-1.936 3.91-.174 1.24-.46 2.754-.855 4.543-.623 1.416-1.852 2.086-3.687 2.012l-1.825-.076c-1.118-1.093-1.938-2.967-2.459-5.62-.546-2.88-1.179-4.854-1.898-5.923l-1.228-.224c-.276.473-.505 1.34-.69 2.606-.095.877-.292 1.74-.588 2.57a2.005 2.005 0 0 1-1.936 1.302 11.206 11.206 0 0 1-5.065-1.078c-1.813-.893-2.72-2.22-2.72-3.984a49.359 49.359 0 0 1 2.197-14.486l-.15-.074c.15-.783 1.006-2.223 2.571-4.319C59.343.74 61.714.528 63.03.528c2.382 0 4.193.918 5.435 2.756.448.67 1.293 2.628 2.532 5.875.024.347.077.52.15.52.124-.196.558-1.014 1.305-2.456C74.859 2.581 77.999.26 81.87.26c.97 0 1.832.434 2.588 1.302a4.187 4.187 0 0 1 1.137 2.794c0 .264-.037.528-.112.781a7.64 7.64 0 0 1 .632 2.571l.15 2.644.111.112c.424 4.346.635 7.685.635 10.018m25.778-12.145a48.576 48.576 0 0 1-.341 9.172c-.524 4.393-1.38 7.168-2.567 8.326-.766.752-2.039 1.193-3.82 1.322-.716.053-2.637-.087-5.761-.42-3.124-.333-5.04-.598-5.75-.796-2.134-.615-3.651-1.445-4.55-2.489-.9-1.044-1.429-2.655-1.59-4.833-.127-1.762.127-3.917.761-6.463.907-3.625 1.397-5.752 1.47-6.381a10.66 10.66 0 0 0 1.157-1.54c.425-.652.91-.998 1.454-1.037 1.83-.12 3.668.027 5.456.438 2.532.56 3.844 1.473 3.934 2.738a16.856 16.856 0 0 1-.273 3.438 15.081 15.081 0 0 0-.227 3.543l.224 2.036.975.079c2.104-.153 3.12-.712 3.05-1.678-.044-.644-.327-1.557-.85-2.738-.522-1.18-.807-2.093-.854-2.738a3.309 3.309 0 0 1 .608-2.192 2.346 2.346 0 0 1 1.842-1.084c3.59-.26 5.474.835 5.652 3.285m23.982 22.851-1.416.147c-.72 0-2.303-.763-4.747-2.289-2.445-1.525-4.152-2.29-5.121-2.291l-.782.446c-.027.372-.04 1.403-.038 3.091 0 1.042-.571 1.874-1.713 2.497a6.276 6.276 0 0 1-3.126.826c-1.762 0-2.967-.943-3.613-2.83-.392-1.141-.588-2.817-.588-5.026 0-3.33-.422-7.91-1.266-13.74 1.044-1.96 3.179-3.337 6.405-4.134 1.371-.347 4.028-.682 7.97-1.005 3.226-.272 5.199-.409 5.92-.409 2.705 0 4.715.447 6.032 1.34 1.615 1.066 2.422 2.89 2.42 5.473 0 1.64-1.24 3.775-3.722 6.405.051.323.708.91 1.971 1.763 1.264.852 1.897 1.652 1.901 2.4 0 .846-.459 1.74-1.378 2.682a33.503 33.503 0 0 1-2.794 2.35c-1.143.917-1.912 1.687-2.306 2.31m-9.049-14.822c-2.937 0-4.406.633-4.406 1.898.004.915.102 1.826.293 2.72.294 1.367.72 2.057 1.27 2.057.889 0 1.974-.67 3.255-2.012s1.92-2.46 1.918-3.352c0-.42-.294-.754-.881-1.002a3.688 3.688 0 0 0-1.457-.315l.008.006Zm41.88 9.64c0 1.175-.917 2.317-2.752 3.425-1.64.993-3.109 1.49-4.407 1.49a50.013 50.013 0 0 0-3.129-4.246 12.255 12.255 0 0 0-1.525-.223c-1.371 0-2.314.658-2.829 1.974-.795 1.959-1.416 3.175-1.863 3.65-1.292 1.313-3.589 1.97-6.889 1.97-.72 0-1.293-.408-1.713-1.228a5.001 5.001 0 0 1-.485-2.194 88.957 88.957 0 0 1 2.644-11.546c1.567-5.312 3.144-8.713 4.73-10.204.196-.942 1.511-1.785 3.946-2.529 1.986-.588 3.662-.886 5.027-.896 1.539 0 2.309.98 2.309 2.938-.019.786-.081 1.57-.185 2.35-.105.78-.167 1.564-.185 2.35 0 1.264.62 2.778 1.86 4.543a379.73 379.73 0 0 1 3.525 4.73c1.265 1.711 1.898 2.928 1.898 3.648m-11.317-5.55a20.298 20.298 0 0 0-.15-1.042c-.495-1.412-1.103-2.12-1.824-2.122l-.15.039c-.223.023-.546.546-.967 1.563-.769 1.836-1.154 2.844-1.154 3.014 0 .226.085.326.258.294a5.992 5.992 0 0 0 4.011-1.748l-.024.003Zm13.576-5.699c4.395-1.316 7.126-1.974 8.191-1.974 1.716 0 2.833.26 3.352.781.372.392.819 1.56 1.34 3.502.621 2.31.907 3.876.858 4.701l-.027.676c-1.04.87-2.998 1.82-5.876 2.85-2.877 1.03-5 1.545-6.369 1.545a3.571 3.571 0 0 1-.588-.038c-.697-.124-1.057-1.117-1.081-2.98l-.038-3.352.038-3.231c.028-.435.028-.87 0-1.305-.023-.587.05-.981.224-1.154m13.405-8.814c0 3.698-1.601 5.548-4.803 5.55a20.503 20.503 0 0 1-4.431-.562c-2.211-.493-3.44-1.113-3.687-1.86a3.877 3.877 0 0 1-.149-1.192c.035-.852.147-1.7.334-2.532.189-.833.302-1.68.338-2.533 0-.72.482-1.313 1.449-1.786a5.897 5.897 0 0 1 2.459-.558c1.436.07 2.867.232 4.283.484 1.663.247 2.556.396 2.68.447 1.012.304 1.518.9 1.518 1.792l.009 2.75ZM46.918 46.095c0-.761-.69-.979-1.536-1.208-1.199-.329-2.312-.81-2.312-2.35 0-1.469 1.14-2.371 2.808-2.371a5.235 5.235 0 0 1 2.271.497v1.812l-1.23.085v-.702c0-.229-.036-.326-.256-.4-.256-.067-.52-.1-.785-.096-.714 0-1.272.294-1.272 1.04s.703.957 1.61 1.234c1.102.352 2.262.849 2.262 2.409 0 1.56-1.257 2.468-2.938 2.468a5.514 5.514 0 0 1-2.44-.497v-1.912l1.233-.086v.74c0 .23.035.327.253.4.287.078.584.115.881.109.796 0 1.451-.256 1.451-1.175m5.829-.359c0 1.175.617 1.537 1.587 1.537s1.572-.485 1.572-1.47v-4.435l-.703-.036v-1.028h2.868v.981l-.4.036c-.217.023-.35.12-.35.361v4.319c0 1.586-1.198 2.506-3.037 2.506-1.983 0-3-.8-3-2.697v-4.442l-.702-.036v-1.028h2.938v.981l-.397.036c-.229.023-.364.097-.364.4l-.012 4.015Zm11.238.362c0-.761-.69-.979-1.537-1.208-1.196-.329-2.309-.81-2.309-2.35 0-1.469 1.137-2.371 2.806-2.371a5.245 5.245 0 0 1 2.274.497v1.812l-1.234.085v-.702c0-.229-.036-.326-.253-.4a2.933 2.933 0 0 0-.787-.096c-.714 0-1.27.294-1.27 1.04s.7.957 1.608 1.234c1.101.352 2.262.849 2.262 2.409 0 1.56-1.258 2.468-2.938 2.468a5.528 5.528 0 0 1-2.444-.497v-1.913l1.233-.085v.74c0 .23.036.327.256.4.287.078.584.115.881.109.8 0 1.452-.256 1.452-1.175m9.436-1.255h-3.425v2.445l.702.035v1.028H67.76v-.981l.4-.035c.205-.024.35-.097.35-.338v-5.623l-.691-.039v-1.028h2.938v.981l-.4.036c-.23.023-.364.097-.364.4v1.874h3.428v-2.224l-.675-.039v-1.028h2.938v.981l-.4.036a.334.334 0 0 0-.35.388v5.581l.69.036v1.028h-2.937v-.981l.4-.035c.231-.024.352-.097.352-.4l-.018-2.098Zm5.165-3.469-.69-.039v-1.028h2.938v.981l-.397.036c-.209.023-.352.097-.352.388v5.581l.69.036v1.028h-2.938v-.978l.4-.038c.232-.024.352-.097.352-.4l-.003-5.567Zm13.873 3.205c0-.147-.074-.182-.218-.194l-.384-.023v-.947h2.55v.982l-.664.023c.005.74-.17 1.472-.508 2.13.587.494 1.219.943 1.521 1.175l-.796 1.052c-.411-.294-.955-.675-1.525-1.137a3.47 3.47 0 0 1-2.49.882c-2.08 0-2.857-1.234-2.857-2.456a2.882 2.882 0 0 1 1.47-2.518c-.246-.4-.375-.86-.374-1.328 0-1.175.835-2.057 2.333-2.057a4.86 4.86 0 0 1 2.206.497v1.824l-1.234.085v-.734c0-.23-.035-.35-.252-.423a2.2 2.2 0 0 0-.644-.097c-.664 0-.978.314-.978.931 0 1.017 1.425 2.444 2.612 3.446a3.23 3.23 0 0 0 .229-1.11m-3.232-.027a1.687 1.687 0 0 0-.737 1.416c0 .8.496 1.378 1.487 1.378a1.86 1.86 0 0 0 1.439-.567 14.719 14.719 0 0 1-2.183-2.23l-.006.003Zm11.608 2.818.4-.038c.205-.024.349-.097.349-.338v-5.623l-.69-.039v-1.028h3.29c1.763 0 2.903.588 2.903 2.227a2.222 2.222 0 0 1-1.451 2.127 1.176 1.176 0 0 1 .69.738l.881 1.9.688.024v1.028h-2.985v-.978l.352-.038c.277-.036.338-.144.23-.388l-.57-1.208c-.168-.376-.338-.558-.761-.558h-1.102v2.107l.787.035v1.028h-3.011v-.978Zm3.279-3.34c1.028 0 1.486-.47 1.486-1.328 0-1.09-.628-1.226-1.657-1.226h-.881v2.553h1.052Zm9.104 4.477c-2.15 0-3.505-1.404-3.505-4.163 0-3.094 1.948-4.184 3.64-4.184 1.801 0 3.423 1.11 3.423 4.184 0 2.77-1.44 4.163-3.558 4.163Zm.085-1.222c1.537 0 1.972-1.452 1.972-2.903 0-1.234-.326-2.976-1.995-2.976-1.548 0-2.057 1.44-2.057 2.879.012 1.366.338 3 2.069 3h.011Zm5.797 1.063v-.978l.4-.038c.205-.024.349-.097.349-.338v-5.623l-.681-.039v-1.028h2.914v.981l-.397.036a.334.334 0 0 0-.268.11.327.327 0 0 0-.073.13.325.325 0 0 0-.011.148v5.393h2.009c.253 0 .294-.155.294-.387v-.846l1.231.085v2.394h-5.767Zm7.944 0v-.978l.4-.038c.208-.024.352-.097.352-.338v-5.623l-.696-.039v-1.028h2.938v.981l-.4.036a.334.334 0 0 0-.268.11.339.339 0 0 0-.084.278v5.393h2.009c.253 0 .276-.155.276-.387v-.846l1.234.085v2.394h-5.761Zm11.928-2.25c0-.761-.687-.979-1.537-1.208-1.195-.329-2.309-.81-2.309-2.35 0-1.469 1.137-2.371 2.809-2.371a5.239 5.239 0 0 1 2.271.497v1.812l-1.234.085v-.702c0-.229-.035-.326-.253-.4a2.932 2.932 0 0 0-.784-.096c-.717 0-1.272.294-1.272 1.04s.702.957 1.61 1.234c1.099.352 2.259.849 2.259 2.409 0 1.56-1.257 2.468-2.938 2.468a5.526 5.526 0 0 1-2.444-.497v-1.913l1.237-.085v.74c0 .23.035.327.252.4.287.078.584.115.882.109.799 0 1.451-.256 1.451-1.175" fill="#CC0100"/></svg>